<svg xmlns="http://www.w3.org/2000/svg" width="96" height="88" viewBox="0 0 96 88" fill="none">
    <path d="M-9.98789 51.5774L14.1543 7.1511L8.14679 3.88651L-15.9954 48.3128L-9.98789 51.5774ZM70.1119 95.1053L94.394 50.4215L88.3865 47.1569L64.1044 91.8407L70.1119 95.1053ZM89.3767 33.9356C84.7315 31.616 78.516 28.8497 73.1892 27.7243L71.7996 34.3884C76.2166 35.3216 81.773 37.7446 86.3386 40.0244L89.3767 33.9356ZM73.1892 27.7243C68.559 26.7462 62.8159 26.6293 58.2282 26.7433L58.4251 33.5532C62.8975 33.4424 67.9828 33.582 71.7996 34.3884L73.1892 27.7243ZM21.4494 5.0524C25.1896 7.39142 29.3211 10.2327 32.1098 12.8546L36.7841 7.90658C33.4853 4.80489 28.8815 1.67434 25.0609 -0.714987L21.4494 5.0524ZM32.1098 12.8546C35.4132 15.9606 38.9523 20.7516 41.7457 24.9364L47.4259 21.1768C44.5794 16.9122 40.6855 11.5748 36.7841 7.90658L32.1098 12.8546ZM25.0531 94.3046C30.1663 94.3557 36.3433 94.706 40.886 95.8224L42.4945 89.208C37.1386 87.8919 30.2948 87.5447 25.0943 87.4928L25.0531 94.3046ZM40.886 95.8224C44.5606 96.7252 49.1315 98.6133 53.1012 100.461L55.9687 94.29C51.9107 92.4012 46.8445 90.277 42.4945 89.208L40.886 95.8224ZM14.8832 81.9439C12.0103 77.6086 7.99585 72.0551 3.97752 68.2771L-0.696882 73.2254C2.71103 76.4295 6.36547 81.4218 9.1901 85.6844L14.8832 81.9439ZM3.97752 68.2771C0.714264 65.2089 -3.82454 62.1136 -7.61697 59.7362L-11.2348 65.4998C-7.52469 67.8252 -3.45383 70.6332 -0.696882 73.2254L3.97752 68.2771ZM64.1044 91.8407C62.619 94.5742 59.0468 95.7226 55.9687 94.29L53.1012 100.461C59.2051 103.302 66.7844 101.228 70.1119 95.1053L64.1044 91.8407ZM94.394 50.4215C97.5636 44.5888 95.6148 37.0506 89.3767 33.9356L86.3386 40.0244C88.8473 41.2771 89.8629 44.4401 88.3865 47.1569L94.394 50.4215ZM-15.9954 48.3128C-19.3228 54.436 -16.9395 61.9237 -11.2348 65.4998L-7.61697 59.7362C-10.4934 57.933 -11.4734 54.311 -9.98789 51.5774L-15.9954 48.3128ZM25.0943 87.4928C21.0062 87.4521 17.1414 85.3519 14.8832 81.9439L9.1901 85.6844C12.7055 90.9889 18.6898 94.2408 25.0531 94.3046L25.0943 87.4928ZM58.2282 26.7433C53.9262 26.85 49.7964 24.7277 47.4259 21.1768L41.7457 24.9364C45.441 30.4723 51.8072 33.7174 58.4251 33.5532L58.2282 26.7433ZM14.1543 7.1511C15.6644 4.37219 18.9948 3.51732 21.4494 5.0524L25.0609 -0.714987C19.0276 -4.48806 11.394 -2.08899 8.14679 3.88651L14.1543 7.1511Z" fill="#027966"/>
</svg>