<svg width="126" height="216" viewBox="0 0 126 216" fill="none" xmlns="http://www.w3.org/2000/svg">
<g id="Layer_1" clip-path="url(#clip0_4_2561)">
<g id="Group">
<path id="Vector" d="M62.9975 19.0258L61.1642 20.8633L59.3309 19.0307V19.0258L61.1642 17.1932L62.9975 19.0258Z" fill="#027966"/>
<path id="Vector_2" d="M92.8232 91.6804L83.4941 101.006L63.0025 80.5221L67.5118 76.0144C70.1731 73.3542 74.4902 73.3542 77.1514 76.0144L92.8232 91.6804Z" fill="#CE9D58"/>
<path id="Vector_3" d="M81.6607 102.839L72.3316 112.164L51.84 91.6804L56.3494 87.1727C59.0106 84.5125 63.3277 84.5125 65.989 87.1727L70.4983 91.6804L72.3316 93.513L81.6607 102.839Z" fill="#CE9D58"/>
<path id="Vector_4" d="M103.991 80.5172L94.6614 89.8429L74.1699 69.3589L78.6792 64.8512C81.3404 62.1909 85.6576 62.1909 88.3188 64.8512L103.991 80.5172Z" fill="#CE9D58"/>
<path id="Vector_5" d="M61.1643 37.7067L51.8351 47.0324L50.0018 48.865L40.6727 58.1907L51.8351 69.349L50.0018 71.1816L38.8394 60.0233L29.5103 69.349L38.8394 78.6747L40.6727 80.5073L50.0018 89.833L59.331 80.5073L61.1643 78.6747L70.4934 69.349L72.3267 67.5164L81.6558 58.1907L61.1593 37.7018L61.1643 37.7067ZM61.1643 60.0283L59.331 58.1956L61.1643 56.363L62.9976 58.1956L61.1643 60.0283Z" fill="#CE9D58"/>
<path id="Vector_6" d="M70.4934 114.002L61.1643 123.328L51.8302 114.002L49.9969 112.169L40.6678 102.844V102.839L38.8345 101.006L29.5004 91.6804L27.6671 89.8478L18.338 80.5172L27.6671 71.1915L36.9962 80.5172H37.0012L49.9969 93.513L50.0018 93.518L59.331 102.839L61.1643 104.676L70.4934 114.002Z" fill="#CE9D58"/>
<path id="Vector_7" d="M68.0047 5.37963C69.3796 6.7541 69.3796 8.98083 68.0047 10.3553L61.1643 17.1882L54.3239 10.3504C52.9489 8.97591 52.9489 6.74917 54.3239 5.3747L58.6706 1.02961C60.0456 -0.344853 62.2731 -0.344853 63.6481 1.02961L67.9997 5.37963H68.0047Z" fill="#027966"/>
<path id="Vector_8" d="M105.824 78.6846L96.4947 69.3589L94.6565 67.5213L85.3274 58.1956L83.4891 56.3581L74.16 47.0324L72.3267 45.1998L62.9976 35.8741C61.9873 34.8642 60.3412 34.8642 59.331 35.8741L50.0018 45.1998L48.1685 47.0373L38.8394 56.363L37.0061 58.2006L27.6769 67.5262L25.8436 69.3589L16.5145 78.6846C11.3596 73.5315 11.3596 65.1813 16.5145 60.0283L51.8302 24.7158C56.9851 19.5628 65.3385 19.5628 70.4934 24.7158L72.3267 26.5484L81.6558 35.8741L83.4891 37.7067L92.8183 47.0324L94.6516 48.865L105.814 60.0283C110.969 65.1813 110.969 73.5315 105.814 78.6846H105.824Z" fill="#CE9D58"/>
<path id="Vector_9" d="M54.2598 14.7644C54.245 14.1536 54.2204 13.5969 54.2155 13.0451C54.2105 12.2323 54.2204 12.252 54.9793 11.9268C56.4332 11.3012 57.8821 10.6509 59.331 10.0105C59.3901 9.98582 59.4394 9.94148 59.5675 9.85774C59.3753 9.80847 59.262 9.77399 59.1437 9.75428C58.0841 9.53752 57.064 9.22223 56.1621 8.60643C55.2849 8.01033 55.3145 8.00048 55.487 6.91667C55.6742 5.75404 56.1523 4.71457 57.0393 3.89678C57.6603 3.32532 58.365 2.90658 59.1585 2.63562C60.499 2.17747 61.8887 2.06416 63.2834 2.17747C64.4514 2.27107 64.2838 2.02475 64.2888 3.19231C64.2986 4.34016 64.2986 5.48801 64.2986 6.63094C64.2986 6.76888 64.2838 6.90682 64.2691 7.09402C64.1261 7.05461 64.0029 7.0349 63.8945 6.99057C62.6674 6.46837 61.4205 5.99543 60.0998 5.79838C59.0106 5.63581 57.9067 5.56684 56.8964 6.16293C56.7387 6.25653 56.5909 6.37477 56.4381 6.48315C56.4233 6.493 56.4184 6.52256 56.3938 6.59153C56.517 6.65065 56.6451 6.72947 56.7782 6.77381C58.6312 7.42902 60.5285 7.89703 62.4752 8.19754C63.3081 8.32562 63.9684 7.96107 64.6682 7.65071C65.6391 7.22211 66.61 6.79351 67.5808 6.36984C67.635 6.34521 67.6942 6.34028 67.7927 6.32058C67.8174 6.46344 67.8568 6.59153 67.8568 6.72454C67.8667 7.85761 67.8568 8.99561 67.8716 10.1287C67.8716 10.4686 67.7533 10.5721 67.4133 10.6263C66.2502 10.8085 65.0822 11.0007 63.9339 11.2618C61.5733 11.8037 59.2866 12.5771 57.0591 13.523C56.1572 13.9072 55.2701 14.3112 54.2549 14.7595L54.2598 14.7644Z" fill="white"/>
</g>
<g id="Group_2">
<path id="Vector_10" d="M26.8391 175.626C26.8391 176.449 26.1344 177.952 24.72 180.129C23.3056 182.307 22.2854 183.4 21.6645 183.4C21.6448 183.4 20.6887 183.622 18.8012 184.065C16.9137 184.509 15.4303 184.73 14.3461 184.73C13.6364 184.73 13.2816 184.656 13.2816 184.504C13.2816 184.287 15.1296 183.316 18.816 181.582C21.6497 180.262 23.0592 179.356 23.0592 178.858C23.0592 178.75 22.4875 178.676 21.3392 178.631C19.91 178.587 18.8258 178.415 18.0866 178.109C16.9432 177.617 16.3666 176.769 16.3666 175.582C16.3666 173.311 17.4853 170.764 19.708 167.926C21.8074 165.31 23.4583 164.005 24.646 164C25.6613 164 26.1738 164.547 26.1738 165.621C26.1738 166.424 25.9816 167.301 25.5873 168.247C25.1339 169.35 24.6214 169.902 24.0596 169.897C23.7343 169.897 23.5323 169.759 23.4583 169.473C23.3795 169.192 23.1676 169.05 22.8226 169.045C22.453 169.045 21.7827 169.478 20.807 170.326C19.8312 171.183 19.3433 171.789 19.3433 172.158C19.3433 172.897 20.595 173.345 23.0937 173.518C25.5923 173.69 26.844 174.39 26.844 175.621L26.8391 175.626Z" fill="#027966"/>
<path id="Vector_11" d="M0 190.691C0 186.652 0.961004 182.888 2.88301 179.405C3.5089 178.282 3.93273 177.72 4.14464 177.715C4.23335 177.74 4.27277 177.828 4.27277 177.976C4.27277 178.351 4.11507 178.986 3.78981 179.888C3.3167 181.149 2.84359 182.39 2.36555 183.617C1.87273 185.223 1.62139 186.928 1.62139 188.745C1.62139 190.805 2.60703 192.731 4.56847 194.519C7.28885 196.992 11.2955 198.224 16.5835 198.219C21.0337 198.219 26.0654 197.012 31.6786 194.583C36.4295 192.529 40.6135 190.11 44.2161 187.317C45.6009 186.243 46.4485 185.351 46.764 184.661C47.0744 183.972 47.2321 182.597 47.2321 180.538C47.2321 179.636 46.8576 173.838 46.0986 163.153C45.3397 152.467 44.9602 146.487 44.9602 145.211C44.9602 143.137 44.6399 141.427 43.9894 140.082C43.9894 139.329 44.5955 137.535 45.803 134.698C45.9557 134.353 46.0839 134.181 46.1923 134.176C46.3204 134.176 46.4732 134.363 46.6457 134.727C46.9907 135.466 47.794 137.496 49.0457 140.826C50.3616 144.289 51.1304 146.423 51.3472 147.216C51.5197 147.827 51.6084 148.28 51.6084 148.575C51.6084 149.531 50.6917 148.96 48.8535 146.856C48.6416 146.556 48.5332 146.689 48.5332 147.245C48.5332 147.27 48.8437 151.285 49.4548 159.285C50.0708 167.291 50.3763 172.055 50.3763 173.592C50.3763 177.942 49.8687 181.77 48.8535 185.075C48.0354 187.716 47.0547 189.642 45.9064 190.849C43.0333 193.903 38.8246 196.844 33.2754 199.672C26.711 203.027 20.8267 204.702 15.6225 204.702C9.70861 204.702 5.42105 202.953 2.75981 199.446C0.926507 197.046 0.00985646 194.125 0.00985646 190.686L0 190.691Z" fill="#027966"/>
<path id="Vector_12" d="M64.0965 190.677C64.0965 189.987 63.9684 189.273 63.7072 188.534C62.416 188.957 60.5778 189.164 58.2024 189.159C53.1115 189.159 50.5636 187.415 50.5636 183.918C50.5636 181.247 51.4064 178.893 53.0918 176.863C54.6886 174.966 56.374 174.015 58.1432 174.011C59.4837 174.011 60.9277 174.858 62.485 176.538C63.8698 178.055 65.1019 179.932 66.1763 182.169C66.265 182.169 66.5015 182.11 66.8909 181.977V187.819L66.6247 187.947C66.6247 189.208 66.3241 190.765 65.7179 192.622C64.9393 195.096 63.86 197.125 62.4801 198.726C59.2422 202.495 55.7235 205.825 51.9238 208.727C46.2662 213.013 41.3232 215.151 37.0899 215.151C33.5514 215.151 30.8064 213.831 28.8597 211.185C27.1348 208.894 26.2724 205.988 26.2724 202.48C26.2724 197.977 27.2235 193.366 29.1209 188.642C29.5546 187.607 29.8552 187.085 30.0277 187.08C30.1164 187.125 30.1558 187.238 30.1558 187.405C30.1558 187.755 30.0671 188.258 29.8946 188.898C28.5443 193.583 27.8642 197.135 27.8642 199.559C27.8642 201.771 28.426 203.677 29.5497 205.278C31.1908 207.53 33.852 208.658 37.5235 208.658C40.722 208.658 44.5709 207.298 49.0605 204.564C52.737 202.357 56.2409 199.652 59.5675 196.445C62.5934 193.549 64.1015 191.622 64.1015 190.667L64.0965 190.677ZM60.8784 182.824C59.3605 180.848 57.956 179.863 56.6598 179.858C54.7576 179.858 53.8064 180.356 53.8064 181.341C53.8064 182.592 55.1272 183.213 57.7638 183.208C58.7149 183.208 59.7548 183.08 60.8784 182.824Z" fill="#027966"/>
<path id="Vector_13" d="M83.292 197.825C80.0541 197.825 77.7132 196.573 76.2643 194.061C74.8598 191.617 74.155 186.366 74.155 178.296C73.0363 183.036 70.5968 186.218 66.8366 187.834V181.996C71.0897 180.203 73.2187 177.789 73.2187 174.759C73.2187 167.798 72.8293 160.552 72.0507 153.024C71.7057 149.61 71.134 145.428 70.3307 140.472C70.9369 137.161 71.3312 135.289 71.5135 134.846C71.7008 134.402 71.8535 134.181 71.9817 134.176C72.1147 134.176 72.2527 134.417 72.4055 134.89C73.7657 139.609 74.8253 145.482 75.5793 152.507C75.8011 154.458 76.077 160.123 76.422 169.508C76.7226 177.819 77.112 183.105 77.59 185.371C78.1075 187.859 78.9108 189.548 79.9851 190.435C80.7441 191.041 81.8431 191.342 83.287 191.342V197.83L83.292 197.825Z" fill="#027966"/>
<path id="Vector_14" d="M104.395 196.692C101.59 196.692 99.634 195.849 98.5301 194.16C97.8598 193.105 97.4853 191.534 97.3966 189.455C97.3769 189.218 97.2684 189.1 97.0713 189.095C96.7263 189.095 96.3813 189.302 96.0364 189.711C93.8778 192.223 92.488 193.746 91.8572 194.288C89.1171 196.647 86.2341 197.825 83.2082 197.825V191.337C86.382 191.337 89.1566 190.504 91.532 188.839C92.4831 188.174 94.6269 186.159 97.9781 182.804C98.3921 182.395 98.7814 182.188 99.1461 182.188C99.7325 182.188 99.8902 182.582 99.6291 183.356C99.3679 184.134 99.2397 184.858 99.2397 185.528C99.2397 187.021 99.8557 188.184 101.088 189.002C102.256 189.785 103.769 190.174 105.622 190.169C108.303 190.169 110.516 189.046 112.26 186.795C113.364 185.11 114.463 183.415 115.562 181.701C115.951 181.272 116.272 181.055 116.533 181.055C116.838 181.055 116.986 181.297 116.986 181.765C116.986 181.962 116.957 182.178 116.888 182.415C116.454 184.257 116.242 185.09 116.242 184.913C116.242 185.691 116.686 186.45 117.568 187.184C118.519 187.987 119.588 188.391 120.776 188.386C122.225 188.386 123.176 188.002 123.63 187.218C123.63 187.07 123.427 186.804 123.013 186.41C122.6 186.021 122.397 185.73 122.397 185.528C122.397 185.272 122.851 183.75 123.758 180.952C123.91 180.479 124.068 180.242 124.241 180.237C124.655 180.237 125.064 180.824 125.473 181.991C125.818 183.011 125.99 183.78 125.99 184.292C125.99 187.001 125.463 189.282 124.403 191.14C123.087 193.46 121.141 194.613 118.573 194.613C116.76 194.613 115.069 193.219 113.487 190.425C111.176 194.603 108.145 196.692 104.385 196.687L104.395 196.692Z" fill="#027966"/>
<path id="Vector_15" d="M104.784 157.369C102.778 156.335 101.768 155.241 101.768 154.093C101.768 152.709 102.404 151.448 103.68 150.295C104.956 149.152 106.011 148.728 106.854 149.024C107.563 149.285 107.918 150.053 107.918 151.324C107.918 152.472 107.682 153.763 107.209 155.187C108.224 155.773 108.86 156.271 109.121 156.679C109.121 157.226 108.667 158.143 107.761 159.433C107.499 159.029 106.888 158.532 105.913 157.941C104.789 159.502 103.365 160.921 101.635 162.197C99.6734 163.65 97.8697 164.744 96.2286 165.478C95.8885 165.65 93.9862 166.38 90.5266 167.655C89.9894 167.853 89.6346 167.946 89.4621 167.946C89.3783 167.946 89.334 167.926 89.334 167.882C89.334 167.754 89.6395 167.493 90.2408 167.104C92.7936 165.586 95.3513 164.064 97.919 162.527C100.989 160.665 103.276 158.95 104.784 157.364V157.369ZM106.016 154.571C106.213 153.945 106.258 153.32 106.144 152.689C106.016 151.999 105.701 151.654 105.203 151.654C104.966 151.654 104.646 151.773 104.232 151.994C103.823 152.226 103.616 152.443 103.616 152.655C103.616 153.157 104.419 153.793 106.011 154.566L106.016 154.571Z" fill="#027966"/>
</g>
</g>
<defs>
<clipPath id="clip0_4_2561">
<rect width="126" height="215.151" fill="white"/>
</clipPath>
</defs>
</svg>
