<?xml version="1.0" encoding="UTF-8"?>
<svg version="1.1" xmlns="http://www.w3.org/2000/svg" width="512" height="512">
<path d="M0 0 C5.1038069 1.27595173 7.86180819 4.20120945 11.5 7.875 C12.16902344 8.51953125 12.83804688 9.1640625 13.52734375 9.828125 C19.21168559 15.36134937 19.21168559 15.36134937 20 19.5 C19.2322044 24.68262032 16.10904582 27.24692582 12.5 30.875 C11.61183594 31.77734375 10.72367187 32.6796875 9.80859375 33.609375 C7.38776038 36.04742624 4.95152703 38.46786682 2.5 40.875 C2.83773437 41.47828125 3.17546875 42.0815625 3.5234375 42.703125 C4.76930126 45.47392599 4.29726417 47.00484899 3.5 49.875 C4.799375 50.08125 6.09875 50.2875 7.4375 50.5 C17.01781813 52.6639163 23.79177544 59.72165816 30.52050781 66.47558594 C31.79790329 67.7402771 31.79790329 67.7402771 33.10110474 69.03051758 C35.41240688 71.32256604 37.71690833 73.62116416 40.01764774 75.9238081 C41.9483648 77.85464573 43.88342305 79.78110519 45.81834483 81.70772767 C50.38658066 86.25680322 54.94668249 90.81392122 59.50195312 95.37597656 C64.18246867 100.06313528 68.87755654 104.73532819 73.57988477 109.40059447 C77.6358698 113.42578171 81.68201723 117.46068056 85.72069049 121.50323701 C88.12457594 123.90917865 90.53198236 126.31129247 92.94919586 128.70384979 C95.64394648 131.37636721 98.32222433 134.064416 100.99707031 136.75683594 C101.78781952 137.5343219 102.57856873 138.31180786 103.39328003 139.112854 C110.59617976 146.42570131 115.52032348 154.49603374 115.8125 164.9375 C115.71637384 173.92529595 112.75126825 181.45008541 106.5 187.875 C103.09515644 186.40402173 100.89550623 184.50953387 98.29420471 181.88279724 C97.4629306 181.04849182 96.63165649 180.2141864 95.77519226 179.354599 C94.41996208 177.97915672 94.41996208 177.97915672 93.03735352 176.57592773 C92.06998046 175.60143993 91.10213385 174.62742203 90.1338501 173.65383911 C88.05162771 171.55852719 85.97245885 169.46024769 83.89550972 167.35970879 C80.61107211 164.03866613 77.31793399 160.72634475 74.0231781 157.4155426 C64.65628556 148.00035997 55.30122037 138.57347712 45.95483398 129.13793945 C40.7912682 123.9252753 35.62053889 118.71982429 30.44202369 113.52201039 C27.16520073 110.23210162 23.89759752 106.93338221 20.6365186 103.62787044 C18.60607234 101.57396491 16.56731393 99.52847106 14.52610779 97.48526382 C13.13072068 96.08353324 11.74537236 94.67183169 10.3603363 93.25987244 C9.52624237 92.42838684 8.69214844 91.59690125 7.83277893 90.74021912 C7.11252313 90.0136785 6.39226732 89.28713789 5.65018559 88.53858089 C3.15774888 86.61020312 1.64841121 85.9782996 -1.5 85.875 C-3.49893875 86.93016473 -3.49893875 86.93016473 -5.21069336 88.7177887 C-5.90073456 89.37061388 -6.59077576 90.02343906 -7.30172729 90.69604683 C-8.02715729 91.41510138 -8.75258728 92.13415592 -9.5 92.875 C-10.23791779 93.59021254 -10.97583557 94.30542507 -11.7361145 95.04231071 C-14.22063833 97.47203019 -16.67677007 99.92798812 -19.12890625 102.39038086 C-20.05666367 103.31799225 -20.98442108 104.24560364 -21.94029236 105.20132446 C-24.46057623 107.72132381 -26.97778537 110.24437363 -29.49441528 112.76802135 C-32.13379109 115.41368837 -34.77603752 118.05648545 -37.41796875 120.69960022 C-42.40982481 125.6945527 -47.39912834 130.69204664 -52.38749886 135.69047982 C-58.07119506 141.38538988 -63.757763 147.07742878 -69.44456291 152.76923931 C-81.13288606 164.46798854 -92.81763348 176.1703024 -104.5 187.875 C-109.4973519 185.61106396 -111.49182199 182.43263191 -113.453125 177.45703125 C-116.39206482 168.19937083 -116.25600976 159.88157589 -111.97212219 151.0811615 C-108.77174858 144.91320376 -104.81726557 140.35181787 -99.88354492 135.51391602 C-99.03881119 134.66188095 -98.19407745 133.80984589 -97.32374573 132.93199158 C-95.0328197 130.62775694 -92.72921504 128.33728708 -90.41826034 126.05317044 C-87.98646271 123.64425227 -85.57036444 121.2196698 -83.15193176 118.79734802 C-79.09299624 114.73665503 -75.02236026 110.68799915 -70.9440918 106.64672852 C-66.24613373 101.99115024 -61.56613221 97.31810681 -56.89555663 92.63506943 C-52.37720589 88.10528669 -47.84753224 83.58699778 -43.31228065 79.07414055 C-41.39316865 77.16425577 -39.47780262 75.25073067 -37.56542015 73.33410835 C-34.88822368 70.65616685 -32.19834926 67.99163869 -29.50463867 65.33032227 C-28.72355743 64.54428619 -27.9424762 63.75825012 -27.13772583 62.94839478 C-20.09393342 56.03872627 -13.20049519 51.81509904 -3.5 49.875 C-3.809375 48.76125 -3.809375 48.76125 -4.125 47.625 C-4.55154009 44.49703932 -3.99700675 43.54904259 -2.5 40.875 C-2.94915771 40.4310791 -3.39831543 39.9871582 -3.86108398 39.52978516 C-5.88915607 37.52246397 -7.91336416 35.51129001 -9.9375 33.5 C-10.64455078 32.80132812 -11.35160156 32.10265625 -12.08007812 31.3828125 C-12.75361328 30.7125 -13.42714844 30.0421875 -14.12109375 29.3515625 C-14.7442749 28.73361816 -15.36745605 28.11567383 -16.00952148 27.47900391 C-18.65898088 24.62774293 -19.02477191 21.9623585 -18.96875 18.08984375 C-18.02841947 13.64678198 -14.6858057 10.90996263 -11.5 7.875 C-10.84 7.19566406 -10.18 6.51632813 -9.5 5.81640625 C-6.37793639 2.78580935 -4.27079026 1.06769756 0 0 Z " fill="#CD9C58" transform="translate(251.5,0.125)"/>
<path d="M0 0 C3.05959799 2.55668835 4.08194228 5.28758631 5.4453125 8.98828125 C5.88230469 10.16970703 6.31929688 11.35113281 6.76953125 12.56835938 C7.21683594 13.80392578 7.66414063 15.03949219 8.125 16.3125 C8.58003906 17.53646484 9.03507812 18.76042969 9.50390625 20.02148438 C11.46057853 25.36023855 13.20972787 30.34981944 14 36 C13.01 36.495 13.01 36.495 12 37 C10.35 35.68 8.7 34.36 7 33 C7.0501123 33.69189423 7.10022461 34.38378845 7.15185547 35.09664917 C7.62634214 41.65668299 8.09736081 48.21695588 8.56460571 54.77750969 C8.80486811 58.14933733 9.04641244 61.52106237 9.29101562 64.89257812 C9.57235945 68.77971622 9.84910545 72.66715929 10.125 76.5546875 C10.21249512 77.74988007 10.29999023 78.94507263 10.39013672 80.17648315 C11.67338068 98.4506065 12.54215752 121.59494513 -0.125 136.4375 C-11.4691766 147.72579395 -26.25993955 155.9460466 -41 162 C-38.71463435 167.61819057 -36.72549045 171.14460317 -31.32421875 174.08984375 C-22.85180542 177.40761233 -14.33025383 176.09495558 -6 173 C10.12766589 165.86685964 32.70258388 152.25170601 41 136 C41.21988 133.32998823 41.21988 133.32998823 41 131 C39.65808594 131.14308594 39.65808594 131.14308594 38.2890625 131.2890625 C19.40928519 133.02004422 19.40928519 133.02004422 12 127 C8.84331294 121.80601845 9.26321175 116.1383449 10.6171875 110.37109375 C13.02467936 103.39362841 17.33996674 98.33001663 24 95 C28.23044735 94.13244526 31.62567673 94.17315305 35.3828125 96.43359375 C40.96676698 101.13736558 44.6382336 106.56650195 48 113 C53.88817125 110.38465843 59.12528829 107.78123967 62.12207031 101.73681641 C65.22234423 92.07216942 62.85665393 79.65278262 62.25 69.625 C62.18863861 68.57882004 62.18863861 68.57882004 62.1260376 67.51150513 C61.3803364 55.07102231 60.02560924 42.75036624 58.32128906 30.40673828 C57.21684968 22.31343151 56.24086782 14.72593337 57.8125 6.625 C58.03873047 5.37589844 58.03873047 5.37589844 58.26953125 4.1015625 C59 2 59 2 62 0 C64.27068674 6.28213834 65.85839232 12.49689226 67.0625 19.0625 C67.30323242 20.30290039 67.30323242 20.30290039 67.54882812 21.56835938 C68.0751435 24.37326098 68.54714625 27.18229388 69 30 C69.16935059 31.04269043 69.33870117 32.08538086 69.51318359 33.15966797 C71.6926539 48.36214603 71.94005459 63.76583892 72.58856201 79.09313965 C71.49711291 108.47786043 71.49711291 108.47786043 82 134 C90.10990354 136.12606351 97.56495281 134.54978993 104.8125 130.625 C109.85152101 127.4677384 113.82070444 123.42475846 117.80200195 119.05126953 C120.71408098 115.92980593 122.66937221 114.2918638 127 114 C126.96519531 114.66386719 126.93039062 115.32773437 126.89453125 116.01171875 C126.54493109 123.08895503 126.54493109 123.08895503 130 129 C134.77954827 131.66551731 138.5600986 132.58284658 144 132 C153.25592685 128.96788603 157.13525044 122.50315771 162.03515625 114.546875 C164 112 164 112 166.24609375 111.140625 C166.82488281 111.09421875 167.40367187 111.0478125 168 111 C167.95359375 111.90363281 167.9071875 112.80726563 167.859375 113.73828125 C167.82328125 114.91777344 167.7871875 116.09726562 167.75 117.3125 C167.70359375 118.48425781 167.6571875 119.65601563 167.609375 120.86328125 C167.68923844 124.04738002 167.68923844 124.04738002 169.7890625 125.87109375 C172.83210584 127.42487383 175.61314294 127.7491217 179 128 C179.66 127.67 180.32 127.34 181 127 C180.6596875 125.576875 180.6596875 125.576875 180.3125 124.125 C179.54819342 119.09503643 181.32876141 114.69268689 183 110 C184.32 110 185.64 110 187 110 C190.50855653 115.57158776 189.51616132 122.68845778 189 129 C187.65444173 134.72063697 184.79379462 139.34779208 180.12890625 142.96484375 C175.89070321 145.02562138 171.55621786 144.83930329 167 144 C164 142.1875 164 142.1875 162 140 C161.00359925 138.99641366 160.0042704 137.99571128 159 137 C158.50371094 137.61488281 158.00742187 138.22976563 157.49609375 138.86328125 C152.53029426 144.77135768 148.92312436 148.51330329 140.91796875 149.3046875 C134.13377638 149.56830183 129.2697742 149.46785204 124 145 C121.44922676 140.55671758 120.62711769 137.09605824 121 132 C117.78419092 134.33877024 115.25897867 136.82211686 112.75 139.875 C107.12423664 146.44451887 99.99992559 151.4553259 91.24609375 152.25 C84.74014325 152.51056372 79.1725939 152.27249055 74 148 C67.60705537 140.60969061 66.75270288 131.36696025 65.875 122 C65.78863281 121.12988281 65.70226562 120.25976562 65.61328125 119.36328125 C65.40355393 117.24270501 65.20102158 115.12141921 65 113 C64.68039307 113.53761963 64.36078613 114.07523926 64.03149414 114.62915039 C59.6986113 121.76656662 59.6986113 121.76656662 56.4375 124.4375 C55.87933594 124.91058594 55.32117188 125.38367188 54.74609375 125.87109375 C52.84209778 127.10208891 51.21527864 127.57827299 49 128 C48.98582031 128.58265625 48.97164062 129.1653125 48.95703125 129.765625 C47.96380884 146.83831286 37.48493695 158.05674589 25.625 169.25 C11.69717745 181.41936002 -4.84292924 193.63398955 -24.06640625 193.25 C-30.05606288 192.73956322 -35.08146041 190.71256816 -39.6171875 186.66015625 C-45.22885514 179.92298464 -47.13943481 172.50552316 -47 164 C-48.27617187 164.433125 -48.27617187 164.433125 -49.578125 164.875 C-64.03231248 169.30351702 -80.55836144 170.86172616 -94.37890625 163.78125 C-102.04403047 159.23521257 -106.7584923 152.6110409 -109 144 C-110.52548241 129.10491146 -108.77543666 115.4318686 -100 103 C-99.34 103.33 -98.68 103.66 -98 104 C-98.18175781 104.65484375 -98.36351563 105.3096875 -98.55078125 105.984375 C-99.08288203 107.91631014 -99.60839916 109.8500653 -100.12890625 111.78515625 C-100.70247936 113.90197539 -101.29322485 116.01422794 -101.90234375 118.12109375 C-103.97358702 125.61384014 -105.09551285 131.04180907 -101.3125 138.1875 C-94.8573403 146.0383699 -87.03947188 149.68168551 -77 151 C-68.26927176 151.56187855 -60.35243806 150.73287273 -51.86328125 148.65625 C-49 148 -49 148 -46 148 C-45.90203125 147.32195312 -45.8040625 146.64390625 -45.703125 145.9453125 C-44.65123598 139.39821014 -43.35646225 132.80512688 -40 127 C-39.01 126.67 -38.02 126.34 -37 126 C-37.47716914 129.81735312 -38.07825006 133.46689561 -39.0625 137.1875 C-40.15919208 140.99303535 -40.15919208 140.99303535 -40 145 C-16.45520321 135.9538094 -16.45520321 135.9538094 1 119 C2.08755783 100.12775806 0.00770726 80.98957699 -1.25952148 62.16558838 C-1.4988583 58.58103531 -1.73051809 54.99600248 -1.96211147 51.41094208 C-2.18655894 47.94668443 -2.41475881 44.48268239 -2.64421272 41.01875305 C-2.75318022 39.36979767 -2.8612169 37.7207805 -2.96829033 36.07170105 C-3.11768438 33.78256349 -3.27189198 31.49380124 -3.42749023 29.20507812 C-3.55739601 27.25704285 -3.55739601 27.25704285 -3.68992615 25.26965332 C-3.93439847 22.69175215 -4.32653115 20.47830079 -5 18 C-5.56315898 11.35472405 -4.18412423 6.84395492 -1 1 C-0.67 0.67 -0.34 0.34 0 0 Z M20 110 C19.67 111.32 19.34 112.64 19 114 C22.52679099 116.35119399 24.02879485 116.21443452 28.1875 116.125 C29.81751953 116.09792969 29.81751953 116.09792969 31.48046875 116.0703125 C32.31191406 116.04710937 33.14335937 116.02390625 34 116 C31.45395403 112.47618313 31.45395403 112.47618313 28 110 C26.62657169 109.9310528 25.24997898 109.91532292 23.875 109.9375 C21.956875 109.9684375 21.956875 109.9684375 20 110 Z " fill="#027966" transform="translate(216,318)"/>
<path d="M0 0 C6.04265914 5.00255879 11.56098043 10.43177324 17.08984375 15.9921875 C18.04368954 16.94790248 18.99775941 17.90339388 19.95204163 18.8586731 C22.44153194 21.35194916 24.92800224 23.84821525 27.41381836 26.34515381 C29.95957994 28.90121509 32.50823777 31.45438505 35.05664062 34.0078125 C40.04057069 39.00241019 45.02131048 44.00017799 50 49 C45.85881237 53.93805184 41.55359152 58.58627298 36.98486328 63.12866211 C35.97405449 64.13968994 35.97405449 64.13968994 34.94282532 65.17114258 C32.7376857 67.37559126 30.52903641 69.57648684 28.3203125 71.77734375 C26.78167206 73.3141171 25.24325375 74.85111288 23.70504761 76.38832092 C19.67298834 80.41657796 15.63793405 84.4418217 11.60223389 88.46643066 C7.47778978 92.58061116 3.35620569 96.69765465 -0.765625 100.81445312 C-8.84096439 108.87909568 -16.91947294 116.94055557 -25 125 C-29.05382735 121.58418599 -32.99629253 118.12834755 -36.74194336 114.37158203 C-38.03248878 113.08092331 -38.03248878 113.08092331 -39.34910583 111.76419067 C-40.25354935 110.85458588 -41.15799286 109.94498108 -42.08984375 109.0078125 C-43.04368954 108.05209752 -43.99775941 107.09660612 -44.95204163 106.1413269 C-47.44153194 103.64805084 -49.92800224 101.15178475 -52.41381836 98.65484619 C-54.95957994 96.09878491 -57.50823777 93.54561495 -60.05664062 90.9921875 C-65.04057069 85.99758981 -70.02131048 80.99982201 -75 76 C-71.7498913 72.1511826 -68.49349707 68.36650119 -64.9140625 64.81640625 C-64.21152344 64.11708984 -63.50898438 63.41777344 -62.78515625 62.69726562 C-62.07230469 61.99279297 -61.35945312 61.28832031 -60.625 60.5625 C-59.52091797 59.46518555 -59.52091797 59.46518555 -58.39453125 58.34570312 C-56.59863926 56.56147277 -54.80044015 54.77963876 -53 53 C-49.09148801 54.58431453 -46.47632644 57.26635095 -43.578125 60.2265625 C-43.07327576 60.73424164 -42.56842651 61.24192078 -42.04827881 61.76498413 C-40.44407904 63.38033842 -38.84699144 65.00252209 -37.25 66.625 C-36.16061893 67.72441698 -35.0707801 68.82338059 -33.98046875 69.921875 C-31.31498115 72.6093602 -28.65584857 75.30299021 -26 78 C-25.01 77.01 -24.02 76.02 -23 75 C-31.25 66.75 -39.5 58.5 -48 50 C-46.09675257 46.19350513 -44.51708822 44.27382544 -41.55029297 41.32324219 C-40.62948944 40.40258972 -39.70868591 39.48193726 -38.75997925 38.53338623 C-37.75415535 37.5377747 -36.7482222 36.54227352 -35.7421875 35.546875 C-34.71327851 34.52169807 -33.68481163 33.49607725 -32.6567688 32.47003174 C-29.95518419 29.77606836 -27.24764659 27.08816632 -24.53881836 24.40148926 C-21.77355511 21.65671696 -19.01397367 18.90624528 -16.25390625 16.15625 C-10.84147726 10.76524427 -5.42274562 5.38063036 0 0 Z M0 46 C-0.66 47.32 -1.32 48.64 -2 50 C-0.02 50.99 -0.02 50.99 2 52 C2.66 51.01 3.32 50.02 4 49 C2.68 48.01 1.36 47.02 0 46 Z " fill="#CE9D58" transform="translate(251,90)"/>
<path d="M0 0 C5.82457767 4.83639309 11.17516043 10.03939152 16.51538086 15.40185547 C17.44299225 16.32932083 18.37060364 17.25678619 19.32632446 18.21235657 C21.85079988 20.73654695 24.3721962 23.26379232 26.89302135 25.79162741 C29.53507659 28.43996528 32.17999419 31.08544145 34.82460022 33.73123169 C39.82357153 38.7333019 44.81998984 43.73791407 49.81547982 48.74346077 C55.50641176 54.44559874 61.20020856 60.14487239 66.89423931 65.8439157 C78.59933415 77.55944229 90.30085365 89.27853316 102 101 C100.30145963 104.62083128 98.28895218 106.94255354 95.4296875 109.765625 C94.53378906 110.65507812 93.63789063 111.54453125 92.71484375 112.4609375 C91.77769531 113.38132812 90.84054687 114.30171875 89.875 115.25 C88.92011363 116.19484856 87.96568141 117.14015633 87.01171875 118.0859375 C84.67890913 120.39518338 82.34155914 122.69963203 80 125 C74.17542233 120.16360691 68.82483957 114.96060848 63.48461914 109.59814453 C62.55700775 108.67067917 61.62939636 107.74321381 60.67367554 106.78764343 C58.14920012 104.26345305 55.6278038 101.73620768 53.10697865 99.20837259 C50.46492341 96.56003472 47.82000581 93.91455855 45.17539978 91.26876831 C40.17642847 86.2666981 35.18001016 81.26208593 30.18452018 76.25653923 C24.49358824 70.55440126 18.79979144 64.85512761 13.10576069 59.1560843 C1.40066585 47.44055771 -10.30085365 35.72146684 -22 24 C-20.30145963 20.37916872 -18.28895218 18.05744646 -15.4296875 15.234375 C-14.08583984 13.90019531 -14.08583984 13.90019531 -12.71484375 12.5390625 C-11.77769531 11.61867187 -10.84054688 10.69828125 -9.875 9.75 C-8.92011363 8.80515144 -7.96568141 7.85984367 -7.01171875 6.9140625 C-4.67890913 4.60481662 -2.34155914 2.30036797 0 0 Z " fill="#CE9D58" transform="translate(172,169)"/>
<path d="M0 0 C5.73207758 3.27668953 10.06682575 7.81033788 14.6796875 12.484375 C15.49245148 13.29996887 16.30521545 14.11556274 17.14260864 14.95587158 C19.72482473 17.54923839 22.29998016 20.14948968 24.875 22.75 C26.62974619 24.51478256 28.38494957 26.27911064 30.140625 28.04296875 C34.43239287 32.35672924 38.71839255 36.67615591 43 41 C41.30145963 44.62083128 39.28895218 46.94255354 36.4296875 49.765625 C35.53378906 50.65507812 34.63789063 51.54453125 33.71484375 52.4609375 C32.77769531 53.38132813 31.84054687 54.30171875 30.875 55.25 C29.92011363 56.19484856 28.96568141 57.14015633 28.01171875 58.0859375 C25.67890913 60.39518338 23.34155914 62.69963203 21 65 C11.97702961 57.48952414 3.79228537 49.09205895 -4.52734375 40.82275391 C-6.51660181 38.846939 -8.5129242 36.87869045 -10.515625 34.91650391 C-13.40991429 32.08072437 -16.28370846 29.22499725 -19.15625 26.3671875 C-20.05815063 25.48795624 -20.96005127 24.60872498 -21.88928223 23.70285034 C-22.7076355 22.88164703 -23.52598877 22.06044373 -24.36914062 21.21435547 C-25.09637329 20.49520966 -25.82360596 19.77606384 -26.57287598 19.03512573 C-28 17 -28 17 -27.84069824 14.87527466 C-23.13256009 4.37322799 -11.10559662 -2.14845113 0 0 Z " fill="#CE9D58" transform="translate(310,150)"/>
<path d="M0 0 C5.73713585 3.26261508 10.06951962 7.81306747 14.6796875 12.484375 C15.49245148 13.29996887 16.30521545 14.11556274 17.14260864 14.95587158 C19.72482473 17.54923839 22.29998016 20.14948968 24.875 22.75 C26.62974619 24.51478256 28.38494957 26.27911064 30.140625 28.04296875 C34.43239287 32.35672924 38.71839255 36.67615591 43 41 C39.7498913 44.8488174 36.49349707 48.63349881 32.9140625 52.18359375 C31.86025391 53.23256836 31.86025391 53.23256836 30.78515625 54.30273438 C30.07230469 55.00720703 29.35945313 55.71167969 28.625 56.4375 C27.52091797 57.53481445 27.52091797 57.53481445 26.39453125 58.65429688 C24.59863926 60.43852723 22.80044015 62.22036124 21 64 C17.38307227 62.47102424 15.0796478 60.32184367 12.32324219 57.55029297 C11.40258972 56.62948944 10.48193726 55.70868591 9.53338623 54.75997925 C8.5377747 53.75415535 7.54227352 52.7482222 6.546875 51.7421875 C5.52169807 50.71327851 4.49607725 49.68481163 3.47003174 48.6567688 C0.77606836 45.95518419 -1.91183368 43.24764659 -4.59851074 40.53881836 C-7.34328304 37.77355511 -10.09375472 35.01397367 -12.84375 32.25390625 C-18.23475573 26.84147726 -23.61936964 21.42274562 -29 16 C-25.98505359 9.67528313 -20.33173535 3.85933039 -14.05078125 0.625 C-9.49209869 -0.76431278 -4.66415477 -0.83573788 0 0 Z " fill="#CE9D58" transform="translate(258,203)"/>
<path d="M0 0 C5.23439796 2.75374849 9.06744352 6.79239107 13.16015625 10.99511719 C13.97009033 11.81071106 14.78002441 12.62630493 15.61450195 13.46661377 C18.18098919 16.05536274 20.73315959 18.65771522 23.28515625 21.26074219 C25.03032055 23.02598446 26.77640509 24.79031748 28.5234375 26.55371094 C32.78805003 30.86225551 37.04101668 35.18203432 41.28515625 39.51074219 C39.58661588 43.13157346 37.57410843 45.45329573 34.71484375 48.27636719 C33.81894531 49.16582031 32.92304688 50.05527344 32 50.97167969 C31.06285156 51.89207031 30.12570312 52.81246094 29.16015625 53.76074219 C28.20526988 54.70559075 27.25083766 55.65089852 26.296875 56.59667969 C23.96406538 58.90592557 21.62671539 61.21037421 19.28515625 63.51074219 C10.26218586 56.00026633 2.07744162 47.60280114 -6.2421875 39.33349609 C-8.23144556 37.35768119 -10.22776795 35.38943264 -12.23046875 33.42724609 C-15.12475804 30.59146656 -17.99855221 27.73573944 -20.87109375 24.87792969 C-21.77299438 23.99869843 -22.67489502 23.11946716 -23.60412598 22.21359253 C-24.42247925 21.39238922 -25.24083252 20.57118591 -26.08398438 19.72509766 C-26.81121704 19.00595184 -27.53844971 18.28680603 -28.28771973 17.54586792 C-29.71484375 15.51074219 -29.71484375 15.51074219 -29.54406738 13.37234497 C-26.88198311 7.39597949 -20.24659265 2.72687527 -14.71484375 -0.48925781 C-9.59422409 -2.19613103 -4.88031464 -2.31961014 0 0 Z " fill="#CE9D58" transform="translate(285.71484375,177.4892578125)"/>
<path d="M0 0 C5.1038069 1.27595173 7.86180819 4.20120945 11.5 7.875 C12.16902344 8.51953125 12.83804687 9.1640625 13.52734375 9.828125 C19.21168559 15.36134937 19.21168559 15.36134937 20 19.5 C19.2322044 24.68262032 16.10904582 27.24692582 12.5 30.875 C11.61183594 31.77734375 10.72367187 32.6796875 9.80859375 33.609375 C7.38776038 36.04742624 4.95152703 38.46786682 2.5 40.875 C2.83257812 41.49117187 3.16515625 42.10734375 3.5078125 42.7421875 C4.5 44.875 4.5 44.875 4.375 47 C3.23160273 49.450137 1.96882406 49.91932617 -0.5 50.875 C-1.82 49.885 -3.14 48.895 -4.5 47.875 C-4.335 47.2975 -4.17 46.72 -4 46.125 C-3.35537969 43.60835631 -3.35537969 43.60835631 -3.5 39.875 C-4.75403708 38.087279 -4.75403708 38.087279 -6.52734375 36.4921875 C-7.46803711 35.57759766 -7.46803711 35.57759766 -8.42773438 34.64453125 C-9.09095703 34.01933594 -9.75417969 33.39414062 -10.4375 32.75 C-11.74025917 31.49945308 -13.04113482 30.24694013 -14.33984375 28.9921875 C-14.92113037 28.44159668 -15.50241699 27.89100586 -16.10131836 27.32373047 C-18.74126438 24.58931963 -19.02302129 21.84134659 -18.96875 18.08984375 C-18.02841947 13.64678198 -14.6858057 10.90996263 -11.5 7.875 C-10.84 7.19566406 -10.18 6.51632813 -9.5 5.81640625 C-6.37793639 2.78580935 -4.27079026 1.06769756 0 0 Z " fill="#027965" transform="translate(251.5,0.125)"/>
<path d="M0 0 C1.56033623 1.56033623 1.20707559 3.08947136 1.25 5.25 C1.22417607 9.29790179 0.5319768 11.72952997 -2 15 C-2.886875 14.7525 -3.77375 14.505 -4.6875 14.25 C-8.08043459 13.66595534 -8.08043459 13.66595534 -10.8125 15.75 C-13.20200031 17.88171271 -13.20200031 17.88171271 -14 21 C-12.53626953 21.16435547 -12.53626953 21.16435547 -11.04296875 21.33203125 C-9.13451172 21.56986328 -9.13451172 21.56986328 -7.1875 21.8125 C-5.92292969 21.96332031 -4.65835938 22.11414063 -3.35546875 22.26953125 C1.203374 23.2619685 1.203374 23.2619685 3 26 C3.32035796 33.68859115 -1.79493526 39.89118154 -6.34375 45.72265625 C-12.41767528 50.40702787 -22.64208872 50.37413108 -30 50 C-29 47 -29 47 -27.05053711 45.74145508 C-25.8015564 45.13660278 -25.8015564 45.13660278 -24.52734375 44.51953125 C-23.17866211 43.85727539 -23.17866211 43.85727539 -21.80273438 43.18164062 C-20.85720703 42.72982422 -19.91167969 42.27800781 -18.9375 41.8125 C-17.98810547 41.34908203 -17.03871094 40.88566406 -16.06054688 40.40820312 C-13.71124969 39.26306832 -11.35779635 38.12750422 -9 37 C-9.8149292 36.80825195 -10.6298584 36.61650391 -11.46948242 36.41894531 C-19.46005196 34.5388113 -19.46005196 34.5388113 -21.85546875 32.1484375 C-23.87827664 28.35135784 -23.02647418 25.04887039 -22 21 C-18.99154167 12.95672505 -14.21646486 6.21254465 -7.375 1 C-4.70939287 -0.1223609 -2.86430217 -0.3182558 0 0 Z " fill="#027966" transform="translate(168,389)"/>
<path d="M0 0 C1.02752294 8.25688073 1.02752294 8.25688073 0.875 12.375 C0.74542157 15.05772508 0.74542157 15.05772508 2.5 16.875 C2.995 17.24625 3.49 17.6175 4 18 C3.01 20.31 2.02 22.62 1 25 C-1.475 24.01 -1.475 24.01 -4 23 C-5.299375 24.4540625 -5.299375 24.4540625 -6.625 25.9375 C-15.59731243 34.83774566 -31.01705097 45 -44 45 C-44 44.34 -44 43.68 -44 43 C-41.84790039 41.50708008 -41.84790039 41.50708008 -38.84765625 39.76953125 C-37.76033203 39.13080078 -36.67300781 38.49207031 -35.55273438 37.83398438 C-34.38977065 37.1593838 -33.22635615 36.48555975 -32.0625 35.8125 C-18.88837774 29.21590087 -18.88837774 29.21590087 -9 19 C-9.61875 18.731875 -10.2375 18.46375 -10.875 18.1875 C-13 17 -13 17 -15 14 C-15 8.32538583 -13.19642918 5.44624978 -9.5703125 1.3828125 C-6.356781 -1.44701375 -3.88551781 -0.94512595 0 0 Z M-8 7 C-8 8.32 -8 9.64 -8 11 C-6.02 11.495 -6.02 11.495 -4 12 C-4.33 10.35 -4.66 8.7 -5 7 C-5.99 7 -6.98 7 -8 7 Z " fill="#027966" transform="translate(362,354)"/>
</svg>
