<svg width="27" height="27" viewBox="0 0 27 27" fill="none" xmlns="http://www.w3.org/2000/svg">
<g id="Group 342">
<g id="Group 344">
<path id="Vector" d="M1 13.7549C1 10.8944 1 9.4641 1.649 8.27843C2.298 7.09276 3.48369 6.35689 5.85504 4.88516L8.35504 3.33359C10.8617 1.77786 12.1151 1 13.5 1C14.8849 1 16.1382 1.77786 18.645 3.33359L21.145 4.88515C23.5164 6.35689 24.702 7.09276 25.351 8.27843C26 9.4641 26 10.8944 26 13.7549V15.6563C26 20.5323 26 22.9704 24.5355 24.4851C23.0711 26 20.714 26 16 26H11C6.28595 26 3.92894 26 2.46446 24.4851C1 22.9704 1 20.5323 1 15.6563V13.7549Z" stroke="#CE9D58" stroke-width="1.5"/>
<path id="Vector_2" d="M17.25 17.25H9.75" stroke="#CE9D58" stroke-width="1.5" stroke-linecap="round"/>
</g>
</g>
</svg>
