<svg xmlns="http://www.w3.org/2000/svg" width="230" height="247" viewBox="0 0 230 247" fill="none">
    <path d="M0.402847 242.497C2.98519 239.063 7.69032 236.373 9.90063 235.235C9.87875 235.126 9.83498 235.038 9.83498 234.929C9.83498 234.382 10.1851 233.923 10.6666 233.748L10.8198 225.633C10.8198 225.479 10.9511 225.348 11.1043 225.348C11.2575 225.348 11.3888 225.479 11.3888 225.633L11.542 233.748C12.0234 233.923 12.3736 234.382 12.3736 234.929C12.3736 235.038 12.3298 235.126 12.3079 235.235C15.2404 236.744 22.5498 240.966 23.4908 246.085C26.2263 243.941 30.5156 240.813 32.3102 238.341L32.5728 227.732C30.647 227.448 28.94 226.114 28.2835 224.123C27.3862 221.323 28.9181 218.305 31.7193 217.408C31.8287 217.364 31.9381 217.342 32.0476 217.321C30.3187 218.524 29.509 220.733 30.1874 222.855C31.019 225.414 33.7764 226.836 36.3369 226.004C36.9934 225.786 37.5843 225.458 38.0657 225.02C37.4311 226.201 36.3806 227.142 35.0019 227.579C34.4986 227.732 33.9953 227.798 33.5138 227.82L33.7764 238.385C35.7898 241.119 40.8669 244.706 43.4712 246.806C41.5235 243.569 39.8602 237.794 47.0164 231.713C49.9708 229.198 56.8206 224.495 59.4248 220.93L59.7531 207.937C57.3896 207.587 55.2887 205.946 54.5008 203.518C53.3847 200.084 55.2668 196.409 58.7026 195.294C58.8339 195.25 58.9652 195.206 59.0965 195.184C56.9738 196.65 55.989 199.384 56.8206 201.943C57.8491 205.093 61.2193 206.821 64.3707 205.793C65.1804 205.531 65.8807 205.115 66.4934 204.59C65.7275 206.012 64.4144 207.171 62.7512 207.718C62.1385 207.915 61.5257 207.98 60.9348 208.002L61.2631 220.952C63.1451 223.511 67.1937 226.661 70.4326 229.154C71.2642 224.692 72.8399 220.405 75.3566 216.817C87.4805 199.472 102.865 194.791 110.875 191.794C110.196 190.81 109.781 189.628 109.781 188.36C109.781 185.932 111.225 183.854 113.304 182.913C112.626 182.257 112.21 181.36 112.21 180.354C112.21 178.823 113.173 177.532 114.508 177.029L114.617 170.073C113.304 169.833 112.385 169.176 112.385 168.433C112.385 167.689 113.348 167.033 114.661 166.792L114.748 160.536C113.851 160.339 113.238 159.88 113.238 159.333C113.238 158.786 113.873 158.327 114.792 158.13L114.945 148.221C107.176 146.515 101.355 139.603 101.355 131.335C101.355 124.204 105.688 118.079 111.86 115.411C107.614 118.254 104.813 123.11 104.813 128.601C104.813 137.372 111.925 144.459 120.679 144.459C127.901 144.459 133.963 139.669 135.91 133.085C135.013 141.812 127.638 148.637 118.688 148.637C118.009 148.637 117.331 148.593 116.652 148.506L116.784 158.13C117.703 158.327 118.337 158.786 118.337 159.333C118.337 159.88 117.725 160.318 116.827 160.536L116.915 166.792C118.25 167.033 119.191 167.689 119.191 168.433C119.191 169.176 118.25 169.833 116.959 170.073L117.068 177.029C118.403 177.532 119.366 178.823 119.366 180.354C119.366 181.36 118.95 182.279 118.272 182.913C120.351 183.854 121.795 185.932 121.795 188.36C121.795 189.65 121.379 190.831 120.701 191.794C128.711 194.791 144.095 199.472 156.219 216.817C158.714 220.405 160.311 224.692 161.143 229.154C164.382 226.639 168.452 223.489 170.313 220.93L170.641 207.937C168.277 207.587 166.176 205.946 165.389 203.518C164.273 200.084 166.155 196.409 169.59 195.294C169.722 195.25 169.853 195.206 169.984 195.184C167.862 196.65 166.877 199.384 167.708 201.943C168.737 205.093 172.107 206.821 175.258 205.793C176.068 205.531 176.768 205.115 177.381 204.59C176.615 206.012 175.302 207.171 173.639 207.718C173.026 207.915 172.413 207.98 171.823 208.002L172.151 220.952C174.755 224.495 181.605 229.22 184.559 231.735C191.715 237.838 190.03 243.635 188.083 246.85C190.665 244.728 195.786 241.141 197.777 238.407L198.04 227.798C196.114 227.514 194.407 226.179 193.751 224.189C192.853 221.389 194.385 218.371 197.186 217.474C197.296 217.43 197.405 217.408 197.515 217.386C195.786 218.589 194.976 220.799 195.655 222.92C196.486 225.479 199.244 226.901 201.804 226.07C202.461 225.851 203.051 225.523 203.533 225.086C202.898 226.267 201.848 227.207 200.469 227.645C199.966 227.798 199.462 227.864 198.981 227.886L199.244 238.451C201.038 240.9 205.327 244.028 208.063 246.194C209.004 241.097 216.313 236.876 219.246 235.345C219.224 235.235 219.18 235.148 219.18 235.038C219.18 234.491 219.53 234.032 220.012 233.857L220.187 225.742C220.187 225.589 220.296 225.458 220.471 225.458C220.625 225.458 220.756 225.567 220.756 225.742L220.909 233.857C221.391 234.032 221.763 234.491 221.763 235.038C221.763 235.148 221.719 235.235 221.697 235.345C223.535 236.285 227.037 238.276 229.663 240.879V95.1776H218.305C218.589 92.4653 218.808 89.7092 218.808 86.9312C218.808 39.3558 115.055 0.814308 115.055 0.814308C115.055 0.814308 11.3231 39.3558 11.3231 86.9312C11.3231 89.7092 11.4982 92.4653 11.8265 95.1776H0.468502V242.497H0.402847Z" fill="#CE9D58"/>
</svg>