<svg width="78" height="133" viewBox="0 0 78 133" fill="none" xmlns="http://www.w3.org/2000/svg">
    <path d="M46.1462 51.3438L46.1462 51.3438C47.5985 49.8941 49.9548 49.8941 51.4071 51.3438L51.4071 51.3438L60.7542 60.6741L55.6867 65.7325L43.7092 53.7764L46.1462 51.3438Z" stroke="black" stroke-opacity="0.06"/>
    <path d="M48.7767 72.6303L36.7991 60.6742L39.2361 58.2416C39.2361 58.2416 39.2361 58.2416 39.2361 58.2416C40.6885 56.7919 43.0449 56.7919 44.4971 58.2416L44.4971 58.2416L47.2886 61.0281L47.2886 61.0281L48.4235 62.1609L48.4235 62.1609L53.8442 67.5719L48.7767 72.6303Z" stroke="black" stroke-opacity="0.06"/>
    <path d="M53.0594 44.443L53.0594 44.443C54.5117 42.9933 56.868 42.9933 58.3203 44.443L58.3203 44.443L67.6674 53.7733L62.5999 58.8317L50.6224 46.8756L53.0594 44.443Z" stroke="black" stroke-opacity="0.06"/>
    <path d="M41.8635 28.0157L53.8411 39.9718L48.4204 45.3828L48.4204 45.3828L47.2855 46.5156L47.2855 46.5156L41.5103 52.2805L41.8635 52.6344L41.5103 52.2805L40.3754 53.4134L34.9534 58.8257L29.5315 53.4134L28.3966 52.2805L28.0434 52.6344L28.3966 52.2805L22.9759 46.8695L28.0434 41.8112L34.6002 48.3563L34.9534 48.7089L35.3066 48.3563L36.4415 47.2234L36.796 46.8695L36.4415 46.5156L29.886 39.9718L35.3066 34.5608L35.3066 34.5608L36.4415 33.428L36.4415 33.428L41.8635 28.0157ZM41.5103 41.4616L41.8635 41.8142L42.2167 41.4616L43.3516 40.3287L43.7062 39.9748L43.3516 39.6209L42.2167 38.4881L41.8635 38.1355L41.5103 38.4881L40.3754 39.6209L40.0209 39.9748L40.3754 40.3287L41.5103 41.4616Z" stroke="black" stroke-opacity="0.06"/>
    <path d="M35.3036 72.9859L29.6753 67.3675V67.3645L29.5285 67.218L28.3936 66.0851L28.3935 66.085L22.6153 60.3202L22.6152 60.3201L21.4805 59.1875L21.4804 59.1874L16.0597 53.7735L21.1272 48.715L26.5492 54.1273L26.6956 54.2734H26.6986L34.5966 62.1603L34.5971 62.1608L34.5997 62.1634L34.6004 62.1641L40.375 67.9253L40.3756 67.9259L41.5099 69.0612L41.5104 69.0617L46.931 74.4727L41.8635 79.5311L36.4385 74.1188L36.4384 74.1187L35.3036 72.9859Z" stroke="black" stroke-opacity="0.06"/>
    <path d="M69.1507 41.4616C72.0265 44.3321 72.1414 48.9122 69.4954 51.9195L64.0881 46.5217L63.7349 46.8756L64.0881 46.5217L62.9501 45.3858L57.1749 39.6209L56.037 38.485L50.2618 32.7201L49.9086 33.074L50.2618 32.7201L49.1269 31.5873L43.3517 25.8224C42.5312 25.0033 41.196 25.0033 40.3755 25.8224L34.6004 31.5873L34.5999 31.5878L33.4654 32.7232L33.4649 32.7237L27.6903 38.488L27.6898 38.4885L26.5554 39.624L26.5549 39.6245L20.7802 45.3888L21.1334 45.7427L20.7802 45.3888L19.6453 46.5217L14.2346 51.9227C11.5858 48.9155 11.6998 44.3332 14.5765 41.4616L14.5766 41.4615L36.4386 19.6325C36.4387 19.6324 36.4387 19.6324 36.4387 19.6324C39.4346 16.6418 44.2897 16.6418 47.2856 19.6325L47.6388 19.2786L47.2856 19.6325L48.4205 20.7653L54.1957 26.5302L55.3306 27.6631L55.6838 27.3092L55.3306 27.6631L61.1058 33.4279L62.2406 34.5607L62.2407 34.5608L69.1506 41.4615L69.1507 41.4616Z" stroke="black" stroke-opacity="0.06"/>
</svg>
