<svg width="61" height="67" viewBox="0 0 61 67" fill="none" xmlns="http://www.w3.org/2000/svg">
    <path d="M31.9984 1.76117L30.8635 2.89709L29.7286 1.76421V1.76117L30.8635 0.628296L31.9984 1.76117Z" fill="#027966"/>
    <path d="M50.4619 46.6741L44.6867 52.439L32.0015 39.7764L34.793 36.9899C36.4404 35.3454 39.1129 35.3454 40.7603 36.9899L50.4619 46.6741Z" fill="#CE9D58"/>
    <path d="M43.5519 53.5719L37.7767 59.3368L25.0914 46.6742L27.8829 43.8877C29.5304 42.2432 32.2029 42.2432 33.8503 43.8877L36.6418 46.6742L37.7767 47.807L43.5519 53.5719Z" fill="#CE9D58"/>
    <path d="M57.3751 39.7733L51.5999 45.5382L38.9147 32.8756L41.7062 30.0891C43.3536 28.4446 46.0261 28.4446 47.6735 30.0891L57.3751 39.7733Z" fill="#CE9D58"/>
    <path d="M30.8635 13.3092L25.0883 19.0741L23.9534 20.2069L18.1783 25.9718L25.0883 32.8695L23.9534 34.0024L17.0434 27.1047L11.2682 32.8695L17.0434 38.6344L18.1783 39.7673L23.9534 45.5321L29.7286 39.7673L30.8635 38.6344L36.6387 32.8695L37.7736 31.7367L43.5488 25.9718L30.8605 13.3062L30.8635 13.3092ZM30.8635 27.1077L29.7286 25.9748L30.8635 24.842L31.9984 25.9748L30.8635 27.1077Z" fill="#CE9D58"/>
    <path d="M36.6387 60.4727L30.8636 66.2375L25.0853 60.4727L23.9504 59.3398L18.1753 53.5749V53.5719L17.0404 52.439L11.2621 46.6741L10.1272 45.5413L4.35205 39.7734L10.1272 34.0085L15.9024 39.7734H15.9055L23.9504 47.807L23.9535 47.8101L29.7287 53.5719L30.8636 54.7078L36.6387 60.4727Z" fill="#CE9D58"/>
    <path d="M58.51 38.6405L52.7349 32.8756L51.5969 31.7397L45.8217 25.9748L44.6838 24.8389L38.9086 19.074L37.7737 17.9412L31.9985 12.1763C31.3731 11.552 30.3541 11.552 29.7287 12.1763L23.9536 17.9412L22.8186 19.0771L17.0435 24.8419L15.9086 25.9779L10.1334 31.7427L8.99849 32.8756L3.22331 38.6405C0.03217 35.455 0.03217 30.2931 3.22331 27.1077L25.0854 5.27855C28.2765 2.0931 33.4477 2.0931 36.6388 5.27855L37.7737 6.41142L43.5489 12.1763L44.6838 13.3092L50.459 19.074L51.5939 20.2069L58.5039 27.1077C61.6951 30.2931 61.6951 35.455 58.5039 38.6405H58.51Z" fill="#CE9D58"/>
</svg>
