<svg width="24" height="24" viewBox="0 0 24 24" fill="none" xmlns="http://www.w3.org/2000/svg">
<g id="Linear / Arrows Action / Logout 2">
<path id="Vector" d="M9.00195 6.99998C9.01406 4.82495 9.11051 3.64704 9.87889 2.87866C10.7576 1.99998 12.1718 1.99998 15.0002 1.99998H16.0002C18.8286 1.99998 20.2429 1.99998 21.1215 2.87866C22.0002 3.75734 22.0002 5.17155 22.0002 7.99998V16C22.0002 18.8284 22.0002 20.2426 21.1215 21.1213C20.2429 22 18.8286 22 16.0002 22H15.0002C12.1718 22 10.7576 22 9.87889 21.1213C9.11051 20.3529 9.01406 19.175 9.00195 17" stroke="#95C1BA" stroke-width="1.5" stroke-linecap="round"/>
<path id="Vector_2" d="M15 12H2M2 12L5.5 8.99998M2 12L5.5 15" stroke="#95C1BA" stroke-width="1.5" stroke-linecap="round" stroke-linejoin="round"/>
</g>
</svg>
