<svg width="146" height="250" viewBox="0 0 146 250" fill="none" xmlns="http://www.w3.org/2000/svg">
<g id="logo" clip-path="url(#clip0_1_98)">
<g id="Group">
<path id="Vector" d="M72.9972 22.1075L70.8729 24.2427L68.7486 22.1132V22.1075L70.8729 19.978L72.9972 22.1075Z" fill="#CE9D58"/>
<path id="Vector_2" d="M107.557 106.53L96.7471 117.367L73.0029 93.5647L78.228 88.3269C81.3116 85.2357 86.314 85.2357 89.3977 88.3269L107.557 106.53Z" fill="#CE9D58"/>
<path id="Vector_3" d="M94.6228 119.496L83.8128 130.332L60.0686 106.53L65.2937 101.293C68.3774 98.2014 73.3798 98.2014 76.4634 101.293L81.6885 106.53L83.8128 108.66L94.6228 119.496Z" fill="#CE9D58"/>
<path id="Vector_4" d="M120.497 93.5589L109.687 104.395L85.9428 80.5933L91.1679 75.3555C94.2516 72.2643 99.254 72.2643 102.338 75.3555L120.497 93.5589Z" fill="#CE9D58"/>
<path id="Vector_5" d="M70.8728 43.8143L60.0629 54.6505L57.9386 56.7799L47.1286 67.6161L60.0629 80.5818L57.9386 82.7113L45.0043 69.7456L34.1944 80.5818L45.0043 91.418L47.1286 93.5475L57.9386 104.384L68.7485 93.5475L70.8728 91.418L81.6828 80.5818L83.8071 78.4524L94.6171 67.6161L70.8671 43.8085L70.8728 43.8143ZM70.8728 69.7513L68.7485 67.6219L70.8728 65.4924L72.9972 67.6219L70.8728 69.7513Z" fill="#CE9D58"/>
<path id="Vector_6" d="M81.6828 132.467L70.8728 143.304L60.0572 132.467L57.9329 130.338L47.1229 119.502V119.496L44.9986 117.367L34.183 106.53L32.0587 104.401L21.2487 93.559L32.0587 82.7227L42.8686 93.559H42.8743L57.9329 108.66L57.9386 108.666L68.7485 119.496L70.8728 121.631L81.6828 132.467Z" fill="#CE9D58"/>
<path id="Vector_7" d="M78.799 6.251C80.3922 7.8481 80.3922 10.4355 78.799 12.0326L70.8729 19.9723L62.9467 12.0269C61.3535 10.4298 61.3535 7.84238 62.9467 6.24528L67.9834 1.19639C69.5766 -0.400705 72.1577 -0.400705 73.7509 1.19639L78.7933 6.251H78.799Z" fill="#CE9D58"/>
<path id="Vector_8" d="M122.621 91.4295L111.811 80.5933L109.681 78.4581L98.8714 67.6219L96.7414 65.4867L85.9314 54.6505L83.8071 52.521L72.9972 41.6848C71.8265 40.5113 69.9192 40.5113 68.7486 41.6848L57.9386 52.521L55.8143 54.6562L45.0044 65.4924L42.8801 67.6276L32.0701 78.4638L29.9458 80.5933L19.1359 91.4295C13.1627 85.4418 13.1627 75.739 19.1359 69.7513L60.0572 28.7191C66.0304 22.7314 75.7096 22.7314 81.6828 28.7191L83.8071 30.8486L94.6171 41.6848L96.7414 43.8143L107.551 54.6505L109.676 56.7799L122.61 69.7513C128.583 75.739 128.583 85.4418 122.61 91.4295H122.621Z" fill="#CE9D58"/>
<path id="Vector_9" d="M62.8725 17.1559C62.8553 16.4461 62.8268 15.7992 62.8211 15.1581C62.8154 14.2136 62.8268 14.2365 63.7062 13.8587C65.3908 13.1317 67.0697 12.3761 68.7485 11.6319C68.8171 11.6033 68.8742 11.5518 69.0227 11.4544C68.7999 11.3972 68.6686 11.3571 68.5316 11.3342C67.3038 11.0824 66.1217 10.716 65.0767 10.0005C64.0602 9.30781 64.0945 9.29636 64.2944 8.037C64.5114 6.68606 65.0653 5.47822 66.0932 4.52797C66.8127 3.86395 67.6293 3.37738 68.5487 3.06254C70.1019 2.53017 71.7123 2.39851 73.3284 2.53017C74.6817 2.63893 74.4876 2.35271 74.4933 3.70939C74.5047 5.04316 74.5047 6.37694 74.5047 7.70499C74.5047 7.86527 74.4876 8.02556 74.4705 8.24308C74.3049 8.19729 74.1621 8.17439 74.0365 8.12287C72.6145 7.51609 71.1698 6.96655 69.6394 6.73757C68.3774 6.54867 67.0982 6.46853 65.9276 7.16118C65.7448 7.26994 65.5735 7.40732 65.3965 7.53326C65.3794 7.54471 65.3737 7.57906 65.3451 7.6592C65.4879 7.72789 65.6363 7.81948 65.7905 7.871C67.9377 8.63234 70.1362 9.17615 72.3918 9.52534C73.3569 9.67417 74.1221 9.25057 74.933 8.88993C76.058 8.39191 77.1829 7.8939 78.3079 7.4016C78.3707 7.37298 78.4392 7.36725 78.5535 7.34436C78.582 7.51036 78.6277 7.6592 78.6277 7.81375C78.6391 9.13036 78.6277 10.4527 78.6448 11.7693C78.6448 12.1643 78.5078 12.2845 78.1137 12.3474C76.7661 12.5592 75.4127 12.7825 74.0821 13.0859C71.3468 13.7156 68.6972 14.6143 66.116 15.7134C65.071 16.1599 64.0431 16.6293 62.8667 17.1502L62.8725 17.1559Z" fill="white"/>
</g>
<g id="Group_2">
<path id="Vector_10" d="M31.0993 204.073C31.0993 205.029 30.2827 206.775 28.6438 209.306C27.0049 211.836 25.8228 213.106 25.1033 213.106C25.0805 213.106 23.9726 213.364 21.7855 213.879C19.5984 214.394 17.8795 214.652 16.6232 214.652C15.8009 214.652 15.3898 214.566 15.3898 214.389C15.3898 214.137 17.5312 213.009 21.8026 210.994C25.0862 209.46 26.7194 208.407 26.7194 207.829C26.7194 207.703 26.057 207.617 24.7264 207.565C23.0704 207.514 21.8141 207.313 20.9575 206.959C19.6327 206.386 18.9645 205.402 18.9645 204.022C18.9645 201.383 20.2608 198.424 22.8362 195.126C25.2689 192.087 27.1819 190.57 28.5582 190.564C29.7345 190.564 30.3284 191.199 30.3284 192.447C30.3284 193.38 30.1057 194.399 29.6489 195.498C29.1235 196.781 28.5296 197.422 27.8786 197.416C27.5017 197.416 27.2676 197.256 27.1819 196.924C27.0906 196.597 26.845 196.431 26.4453 196.426C26.017 196.426 25.2404 196.929 24.1097 197.914C22.979 198.91 22.4137 199.614 22.4137 200.044C22.4137 200.902 23.8641 201.423 26.7593 201.623C29.6546 201.824 31.105 202.637 31.105 204.068L31.0993 204.073Z" fill="white"/>
<path id="Vector_11" d="M0 221.579C0 216.885 1.11354 212.511 3.34063 208.464C4.06587 207.159 4.55697 206.506 4.80252 206.501C4.90531 206.529 4.95099 206.632 4.95099 206.804C4.95099 207.239 4.76826 207.977 4.39136 209.025C3.84316 210.49 3.29495 211.933 2.74103 213.358C2.16998 215.225 1.87875 217.205 1.87875 219.317C1.87875 221.71 3.02085 223.948 5.29362 226.026C8.44581 228.9 13.0884 230.331 19.2158 230.325C24.3724 230.325 30.2028 228.923 36.707 226.101C42.2119 223.714 47.0601 220.903 51.2345 217.657C52.8391 216.409 53.8213 215.373 54.1868 214.572C54.5466 213.771 54.7293 212.173 54.7293 209.781C54.7293 208.733 54.2953 201.996 53.4159 189.579C52.5365 177.163 52.0968 170.214 52.0968 168.731C52.0968 166.321 51.7256 164.335 50.9718 162.772C50.9718 161.896 51.6742 159.813 53.0733 156.515C53.2503 156.115 53.3988 155.914 53.5244 155.909C53.6729 155.909 53.8499 156.126 54.0498 156.55C54.4495 157.408 55.3803 159.767 56.8308 163.637C58.3555 167.661 59.2463 170.139 59.4976 171.061C59.6974 171.771 59.8002 172.298 59.8002 172.641C59.8002 173.752 58.7381 173.087 56.608 170.643C56.3625 170.294 56.2369 170.449 56.2369 171.095C56.2369 171.124 56.5966 175.789 57.3047 185.086C58.0185 194.388 58.3726 199.923 58.3726 201.709C58.3726 206.764 57.7844 211.212 56.608 215.053C55.6601 218.121 54.5237 220.359 53.1932 221.762C49.864 225.311 44.9872 228.728 38.5572 232.014C30.9508 235.912 24.1325 237.859 18.1022 237.859C11.2497 237.859 6.28153 235.826 3.19787 231.751C1.07357 228.963 0.011421 225.568 0.011421 221.573L0 221.579Z" fill="white"/>
<path id="Vector_12" d="M74.2706 221.561C74.2706 220.76 74.1221 219.93 73.8195 219.071C72.3233 219.564 70.1933 219.804 67.4408 219.798C61.5419 219.798 58.5896 217.772 58.5896 213.708C58.5896 210.605 59.5661 207.869 61.5191 205.51C63.3693 203.306 65.3222 202.202 67.3723 202.196C68.9256 202.196 70.5987 203.18 72.4032 205.132C74.0079 206.896 75.4355 209.077 76.6804 211.675C76.7832 211.675 77.0573 211.607 77.5084 211.452V218.241L77.2001 218.39C77.2001 219.856 76.8517 221.664 76.1493 223.822C75.2471 226.696 73.9965 229.055 72.3975 230.915C68.6457 235.294 64.5685 239.164 60.1657 242.535C53.61 247.516 47.8824 250 42.9771 250C38.877 250 35.6962 248.466 33.4406 245.392C31.4419 242.73 30.4426 239.353 30.4426 235.277C30.4426 230.045 31.5447 224.687 33.7433 219.197C34.2458 217.995 34.5941 217.388 34.794 217.383C34.8968 217.434 34.9425 217.566 34.9425 217.76C34.9425 218.167 34.8397 218.751 34.6398 219.495C33.0751 224.939 32.2871 229.066 32.2871 231.882C32.2871 234.453 32.9381 236.668 34.2401 238.528C36.1417 241.144 39.2253 242.455 43.4796 242.455C47.1857 242.455 51.6456 240.875 56.8479 237.698C61.1079 235.134 65.1681 231.991 69.0226 228.265C72.5289 224.899 74.2763 222.66 74.2763 221.55L74.2706 221.561ZM70.5416 212.437C68.7828 210.141 67.1553 208.996 65.6535 208.991C63.4492 208.991 62.3471 209.569 62.3471 210.714C62.3471 212.168 63.8775 212.889 66.9326 212.883C68.0347 212.883 69.2396 212.734 70.5416 212.437Z" fill="white"/>
<path id="Vector_13" d="M96.5129 229.867C92.7611 229.867 90.0487 228.413 88.3698 225.494C86.7423 222.655 85.9257 216.553 85.9257 207.176C84.6294 212.683 81.8027 216.381 77.4456 218.258V211.475C82.3738 209.391 84.8407 206.586 84.8407 203.066C84.8407 194.977 84.3896 186.557 83.4873 177.81C83.0876 173.843 82.4252 168.983 81.4944 163.224C82.1967 159.378 82.6536 157.202 82.8649 156.687C83.0819 156.172 83.2589 155.914 83.4074 155.909C83.5615 155.909 83.7214 156.189 83.8985 156.739C85.4746 162.223 86.7023 169.046 87.576 177.209C87.833 179.476 88.1528 186.059 88.5525 196.964C88.9009 206.621 89.352 212.763 89.9059 215.396C90.5055 218.287 91.4363 220.251 92.6812 221.281C93.5606 221.985 94.8341 222.334 96.5072 222.334V229.873L96.5129 229.867Z" fill="white"/>
<path id="Vector_14" d="M120.965 228.551C117.716 228.551 115.449 227.572 114.17 225.608C113.393 224.383 112.959 222.557 112.856 220.142C112.833 219.867 112.708 219.73 112.479 219.724C112.08 219.724 111.68 219.964 111.28 220.439C108.779 223.359 107.169 225.128 106.438 225.757C103.263 228.499 99.9221 229.867 96.4158 229.867V222.328C100.093 222.328 103.308 221.361 106.061 219.426C107.163 218.653 109.647 216.312 113.53 212.414C114.01 211.939 114.461 211.698 114.884 211.698C115.563 211.698 115.746 212.156 115.443 213.055C115.141 213.959 114.992 214.801 114.992 215.579C114.992 217.314 115.706 218.665 117.133 219.615C118.487 220.525 120.24 220.977 122.387 220.972C125.494 220.972 128.058 219.667 130.079 217.051C131.358 215.093 132.632 213.124 133.905 211.132C134.356 210.634 134.728 210.382 135.03 210.382C135.384 210.382 135.556 210.662 135.556 211.206C135.556 211.435 135.521 211.687 135.441 211.962C134.939 214.103 134.693 215.07 134.693 214.864C134.693 215.768 135.207 216.65 136.229 217.503C137.331 218.436 138.571 218.905 139.947 218.9C141.626 218.9 142.728 218.453 143.253 217.543C143.253 217.371 143.019 217.062 142.539 216.604C142.06 216.152 141.826 215.814 141.826 215.579C141.826 215.282 142.351 213.513 143.402 210.261C143.579 209.712 143.761 209.437 143.961 209.431C144.441 209.431 144.915 210.113 145.389 211.469C145.789 212.654 145.989 213.547 145.989 214.143C145.989 217.291 145.378 219.941 144.15 222.099C142.625 224.796 140.369 226.135 137.394 226.135C135.293 226.135 133.334 224.515 131.501 221.269C128.823 226.124 125.311 228.551 120.954 228.545L120.965 228.551Z" fill="white"/>
<path id="Vector_15" d="M121.416 182.859C119.092 181.657 117.922 180.386 117.922 179.052C117.922 177.444 118.658 175.978 120.137 174.639C121.616 173.311 122.838 172.818 123.815 173.162C124.637 173.465 125.048 174.358 125.048 175.835C125.048 177.169 124.774 178.669 124.226 180.323C125.402 181.004 126.139 181.582 126.442 182.058C126.442 182.693 125.916 183.758 124.865 185.257C124.563 184.788 123.855 184.21 122.724 183.523C121.422 185.338 119.772 186.986 117.767 188.469C115.495 190.158 113.405 191.428 111.503 192.281C111.109 192.482 108.905 193.329 104.896 194.811C104.273 195.04 103.862 195.149 103.662 195.149C103.565 195.149 103.514 195.126 103.514 195.075C103.514 194.926 103.868 194.623 104.565 194.17C107.523 192.407 110.486 190.638 113.462 188.852C117.019 186.689 119.669 184.696 121.416 182.853V182.859ZM122.844 179.608C123.072 178.881 123.124 178.154 122.992 177.421C122.844 176.619 122.479 176.219 121.902 176.219C121.628 176.219 121.256 176.356 120.777 176.614C120.303 176.883 120.063 177.135 120.063 177.381C120.063 177.965 120.994 178.703 122.838 179.602L122.844 179.608Z" fill="white"/>
</g>
</g>
<defs>
<clipPath id="clip0_1_98">
<rect width="146" height="250" fill="white"/>
</clipPath>
</defs>
</svg>
