<svg width="30" height="32" viewBox="0 0 30 32" fill="none" xmlns="http://www.w3.org/2000/svg">
<g id="Linear / Messages, Conversation / Letter Unread">
<path id="Vector" d="M27.5 13.3333C27.5231 14.3028 27.5 14.7389 27.5 16C27.5 21.0283 27.5 23.5425 26.0355 25.1045C24.5711 26.6667 22.214 26.6667 17.5 26.6667H12.5C7.78595 26.6667 5.42894 26.6667 3.96446 25.1045C2.5 23.5425 2.5 21.0283 2.5 16C2.5 10.9717 2.5 8.45753 3.96446 6.89543C5.42894 5.33333 7.78595 5.33333 12.5 5.33333H16.25" stroke="#95C1BA" stroke-width="1.5" stroke-linecap="round"/>
<path id="Vector_2" d="M7.5 10.6667L10.1986 13.0654C12.4944 15.1061 13.6424 16.1265 15 16.1265C16.3576 16.1265 17.5056 15.1061 19.8014 13.0654" stroke="#95C1BA" stroke-width="1.5" stroke-linecap="round"/>
<path id="Vector_3" d="M23.75 10.6667C25.8211 10.6667 27.5 8.87581 27.5 6.66667C27.5 4.45753 25.8211 2.66667 23.75 2.66667C21.6789 2.66667 20 4.45753 20 6.66667C20 8.87581 21.6789 10.6667 23.75 10.6667Z" stroke="#95C1BA" stroke-width="1.5"/>
</g>
</svg>
