<svg xmlns="http://www.w3.org/2000/svg" width="28" height="28" viewBox="0 0 28 28" fill="none">
    <path d="M25.4706 19.1862L23.3333 15.9802V11.6666C23.3333 9.19129 22.3499 6.81732 20.5996 5.06698C18.8493 3.31664 16.4753 2.33331 13.9999 2.33331C11.5246 2.33331 9.1506 3.31664 7.40026 5.06698C5.64992 6.81732 4.66659 9.19129 4.66659 11.6666V15.9802L2.52926 19.1862C2.4125 19.3619 2.34556 19.5661 2.33554 19.7768C2.32553 19.9876 2.37282 20.1972 2.47239 20.3832C2.57195 20.5693 2.72007 20.7249 2.901 20.8335C3.08193 20.9421 3.28891 20.9996 3.49993 21H24.4999C24.7109 20.9996 24.9179 20.9421 25.0989 20.8335C25.2798 20.7249 25.4279 20.5693 25.5275 20.3832C25.627 20.1972 25.6743 19.9876 25.6643 19.7768C25.6543 19.5661 25.5874 19.3619 25.4706 19.1862Z" fill="#CE9D58"/>
    <path d="M14.0001 25.6667C15.0345 25.6676 16.0398 25.3241 16.8573 24.6903C17.6749 24.0566 18.2581 23.1687 18.5151 22.1667H9.48511C9.74208 23.1687 10.3253 24.0566 11.1429 24.6903C11.9604 25.3241 12.9657 25.6676 14.0001 25.6667Z" fill="#CE9D58"/>
</svg>