<svg width="115" height="124" viewBox="0 0 115 124" fill="none" xmlns="http://www.w3.org/2000/svg">
<g filter="url(#filter0_d_3_24)">
<path fill-rule="evenodd" clip-rule="evenodd" d="M31.9868 11.2191C46.172 -2.40637 69.109 -2.40637 83.294 11.2191C97.569 24.9303 97.569 47.229 83.294 60.94L44.9803 97.742C34.9052 107.419 18.6328 107.419 8.55768 97.742C-1.60672 87.979 -1.60672 72.081 8.55758 62.318L46.32 26.0457C52.285 20.3162 61.893 20.3161 67.858 26.0456C73.912 31.8608 73.913 41.3576 67.858 47.173L29.8202 83.709C28.3778 85.095 26.0892 85.045 24.7085 83.597C23.3278 82.15 23.3778 79.853 24.8202 78.468L62.858 41.931C65.938 38.9731 65.938 34.2454 62.858 31.2872C59.689 28.2434 54.489 28.2434 51.32 31.2872L13.5576 67.559C6.36768 74.465 6.36768 85.594 13.5576 92.5C20.8366 99.492 32.7012 99.492 39.9802 92.5L78.294 55.699C89.594 44.845 89.594 27.3148 78.294 16.4607C66.905 5.52092 48.376 5.52082 36.9868 16.4607L6.11538 46.114C4.67298 47.499 2.38438 47.449 1.00368 46.002C-0.377018 44.554 -0.32702 42.258 1.11538 40.8721L31.9868 11.2191Z" fill="white"/>
</g>
<defs>
<filter id="filter0_d_3_24" x="0" y="0" width="115" height="124" filterUnits="userSpaceOnUse" color-interpolation-filters="sRGB">
<feFlood flood-opacity="0" result="BackgroundImageFix"/>
<feColorMatrix in="SourceAlpha" type="matrix" values="0 0 0 0 0 0 0 0 0 0 0 0 0 0 0 0 0 0 127 0" result="hardAlpha"/>
<feOffset dx="11" dy="9"/>
<feGaussianBlur stdDeviation="5"/>
<feComposite in2="hardAlpha" operator="out"/>
<feColorMatrix type="matrix" values="0 0 0 0 0 0 0 0 0 0 0 0 0 0 0 0 0 0 0.15 0"/>
<feBlend mode="normal" in2="BackgroundImageFix" result="effect1_dropShadow_3_24"/>
<feBlend mode="normal" in="SourceGraphic" in2="effect1_dropShadow_3_24" result="shape"/>
</filter>
</defs>
</svg>
