<svg xmlns="http://www.w3.org/2000/svg" width="102" height="79" viewBox="0 0 102 79" fill="none">
    <g filter="url(#filter0_d_19_489)">
        <path fill-rule="evenodd" clip-rule="evenodd" d="M49 7.1579C41.4424 7.1579 35.3158 13.1314 35.3158 20.5C35.3158 27.8686 41.4424 33.8421 49 33.8421C56.5576 33.8421 62.6842 27.8686 62.6842 20.5C62.6842 13.1314 56.5576 7.1579 49 7.1579ZM29 20.5C29 9.73045 37.9543 1 49 1C60.0457 1 69 9.73045 69 20.5C69 31.2696 60.0457 40 49 40C37.9543 40 29 31.2696 29 20.5Z" fill="white"/>
        <path fill-rule="evenodd" clip-rule="evenodd" d="M71 12.1154C71 10.3948 72.4178 9 74.1667 9C82.3463 9 90 14.5365 90 22.5C90 30.4635 82.3463 36 74.1667 36C72.4178 36 71 34.6052 71 32.8846C71 31.164 72.4178 29.7692 74.1667 29.7692C79.9787 29.7692 83.6667 26.007 83.6667 22.5C83.6667 18.993 79.9787 15.2308 74.1667 15.2308C72.4178 15.2308 71 13.836 71 12.1154Z" fill="white"/>
        <path fill-rule="evenodd" clip-rule="evenodd" d="M23.8333 15.2308C18.0215 15.2308 14.3333 18.993 14.3333 22.5C14.3333 26.007 18.0215 29.7692 23.8333 29.7692C25.5822 29.7692 27 31.164 27 32.8846C27 34.6052 25.5822 36 23.8333 36C15.654 36 8 30.4636 8 22.5C8 14.5364 15.654 9 23.8333 9C25.5822 9 27 10.3948 27 12.1154C27 13.836 25.5822 15.2308 23.8333 15.2308Z" fill="white"/>
        <path fill-rule="evenodd" clip-rule="evenodd" d="M33.1266 57.4504C29.1788 60.055 27.2222 63.3152 27.2222 66.5C27.2222 69.6848 29.1788 72.945 33.1266 75.5496C37.0527 78.1399 42.6557 79.8421 49 79.8421C55.3443 79.8421 60.9473 78.1399 64.8734 75.5496C68.8212 72.945 70.7778 69.6848 70.7778 66.5C70.7778 63.3152 68.8212 60.055 64.8734 57.4504C60.9473 54.8601 55.3443 53.1579 49 53.1579C42.6557 53.1579 37.0527 54.8601 33.1266 57.4504ZM29.6752 52.3267C34.7571 48.9738 41.5986 47 49 47C56.4014 47 63.2429 48.9738 68.3248 52.3267C73.3851 55.6653 77 60.6157 77 66.5C77 72.3843 73.3851 77.3347 68.3248 80.6733C63.2429 84.0262 56.4014 86 49 86C41.5986 86 34.7571 84.0262 29.6752 80.6733C24.6149 77.3347 21 72.3843 21 66.5C21 60.6157 24.6149 55.6653 29.6752 52.3267Z" fill="white"/>
        <path fill-rule="evenodd" clip-rule="evenodd" d="M79.0742 53.4486C79.4488 51.768 81.1373 50.7044 82.8455 51.073C86.9065 51.9491 90.5661 53.5316 93.283 55.7188C95.9976 57.9041 98 60.908 98 64.5C98 68.092 95.9976 71.0959 93.283 73.2812C90.5661 75.4684 86.9065 77.0509 82.8455 77.927C81.1373 78.2956 79.4488 77.232 79.0742 75.5514C78.6996 73.8709 79.7807 72.2097 81.4889 71.8412C84.8343 71.1194 87.5079 69.8798 89.2724 68.4593C91.0393 67.0369 91.6669 65.6477 91.6669 64.5C91.6669 63.3523 91.0393 61.9631 89.2724 60.5407C87.5079 59.1202 84.8343 57.8806 81.4889 57.1588C79.7807 56.7903 78.6996 55.1291 79.0742 53.4486Z" fill="white"/>
        <path fill-rule="evenodd" clip-rule="evenodd" d="M18.9258 53.4486C19.3004 55.1292 18.2193 56.7903 16.5111 57.1588C13.1656 57.8806 10.492 59.1202 8.72752 60.5407C6.96064 61.9631 6.33311 63.3522 6.33311 64.5C6.33311 65.6478 6.96064 67.0369 8.72752 68.4593C10.492 69.8798 13.1656 71.1194 16.5111 71.8412C18.2193 72.2097 19.3004 73.8708 18.9258 75.5514C18.5512 77.232 16.8627 78.2956 15.1545 77.927C11.0934 77.0509 7.43383 75.4684 4.71688 73.2812C2.00229 71.0959 0 68.092 0 64.5C0 60.908 2.00229 57.9041 4.71688 55.7188C7.43383 53.5316 11.0934 51.9491 15.1545 51.073C16.8627 50.7044 18.5512 51.768 18.9258 53.4486Z" fill="white"/>
    </g>
    <defs>
        <filter id="filter0_d_19_489" x="0" y="0" width="119" height="105" filterUnits="userSpaceOnUse" color-interpolation-filters="sRGB">
            <feFlood flood-opacity="0" result="BackgroundImageFix"/>
            <feColorMatrix in="SourceAlpha" type="matrix" values="0 0 0 0 0 0 0 0 0 0 0 0 0 0 0 0 0 0 127 0" result="hardAlpha"/>
            <feOffset dx="11" dy="9"/>
            <feGaussianBlur stdDeviation="5"/>
            <feComposite in2="hardAlpha" operator="out"/>
            <feColorMatrix type="matrix" values="0 0 0 0 0 0 0 0 0 0 0 0 0 0 0 0 0 0 0.15 0"/>
            <feBlend mode="normal" in2="BackgroundImageFix" result="effect1_dropShadow_19_489"/>
            <feBlend mode="normal" in="SourceGraphic" in2="effect1_dropShadow_19_489" result="shape"/>
        </filter>
    </defs>
</svg>