
<svg width="61" height="64" viewBox="0 0 61 64" fill="none" xmlns="http://www.w3.org/2000/svg">
<g id="Union">
<path id="Union_2" fill-rule="evenodd" clip-rule="evenodd" d="M57.6739 24.2182C60.6245 27.1634 60.847 31.7982 58.3415 34.9983C58.1388 35.2571 57.9183 35.5065 57.68 35.7449L57.677 35.748L57.6739 35.7449L56.9692 35.0415L51.9049 29.9861L50.7669 28.8502L44.9917 23.0853L43.8538 21.9494L44.5603 21.2417L45.6982 22.3776L51.4734 28.1425L51.4734 28.1425L52.6114 29.2784L52.6114 29.2784L57.6278 34.2859C59.7466 31.4824 59.5265 27.4803 56.9675 24.926L56.9673 24.9258L50.0574 18.0252L50.0573 18.025L48.9226 16.8923L43.1474 11.1275L43.8538 10.4197L49.629 16.1845L50.7639 17.3174L57.6739 24.2182ZM57.677 35.748L57.68 35.751H57.6739L57.677 35.748ZM42.7189 9.28682L43.8538 10.4197L43.1473 11.1275L42.0125 9.99456L36.2373 4.22969L36.2373 4.22966L35.1024 3.09689L35.1023 3.09685C32.3016 0.301049 27.7626 0.301049 24.9619 3.09685L3.0999 24.9259L3.0998 24.926C0.539826 27.4814 0.320591 31.4857 2.44214 34.2893L7.46204 29.2784L8.59694 28.1455L8.59696 28.1455L14.3712 22.3817L14.3722 22.3807L15.5061 21.2457L15.507 21.2447L21.2812 15.4808L21.2821 15.4799L22.4162 14.3449L22.4171 14.344L28.1922 8.57909C29.208 7.5651 30.8592 7.5651 31.875 8.57909L37.6502 14.344L37.6502 14.344L38.7851 15.4768L38.7851 15.4768L44.5603 21.2417L43.8538 21.9494L38.0786 16.1845L36.9437 15.0517L31.1685 9.28682C30.5431 8.66252 29.5241 8.66252 28.8987 9.28682L23.1236 15.0517L21.9886 16.1876L16.2135 21.9524L15.0786 23.0884L9.30342 28.8532L8.16853 29.9861L2.39332 35.751L2.37245 35.7301C2.14084 35.4973 1.92618 35.254 1.72849 35.0017C-0.779784 31.8015 -0.558172 27.1645 2.39332 24.2182L24.2554 2.38912C27.4465 -0.796375 32.6177 -0.796375 35.8088 2.38912L36.9437 3.52192L42.7189 9.28682ZM30.0335 10.4197L29.3258 11.1262L24.2583 16.1846L23.1234 17.3174L18.0561 22.3758L17.3483 23.0823L18.0561 23.7888L23.5506 29.2735L24.2583 29.98L23.5506 30.6865L23.1234 31.1129L16.2134 24.2152L11.146 29.2736L10.4382 29.98L11.146 30.6865L16.2134 35.7449L17.3483 36.8778L23.1234 42.6427L23.1237 42.6425L28.8986 36.8778L30.0335 35.7449L35.8087 29.98L36.9436 28.8472L42.0111 23.7888L42.7188 23.0823L42.0111 22.3759L30.7413 11.1262L30.0335 10.4197ZM30.0335 35.7449L29.327 35.0372L28.1921 36.1701L23.1234 41.2298L18.0548 36.1701L16.9199 35.0372L16.2134 35.7449L16.9199 35.0372L11.8537 29.98L16.2134 25.6282L22.4169 31.8207L23.1234 32.5259L23.8299 31.8207L24.9648 30.6878L25.6738 29.98L24.9648 29.2723L18.7638 23.0823L23.8299 18.0252L23.8299 18.0252L24.9648 16.8924L24.9648 16.8924L30.0335 11.8327L41.3033 23.0823L36.2372 28.1395L36.2372 28.1395L35.1023 29.2723L35.1022 29.2723L29.327 35.0372L30.0335 35.7449ZM29.327 24.926L30.0335 25.6312L30.74 24.926L31.8749 23.7931L32.5839 23.0853L31.8749 22.3776L30.74 21.2448L30.0335 20.5396L29.3271 21.2448L28.1922 22.3776L27.4831 23.0853L28.1921 23.7931L29.327 24.926ZM29.6064 23.7918L30.0335 24.2182L30.4607 23.7918L31.1684 23.0853L30.4607 22.3789L30.0335 21.9525L29.6064 22.3789L28.8986 23.0853L29.6064 23.7918ZM40.8762 27.1996L38.7925 29.2797L38.0847 29.9861L38.7925 30.6926L50.7699 42.6487L55.8374 37.5903L56.5451 36.8838L55.8374 36.1774L46.8435 27.1996C45.1961 25.5551 42.5236 25.5551 40.8762 27.1996ZM55.1296 36.8838L46.1371 27.9074C44.88 26.6525 42.8397 26.6525 41.5827 27.9074L39.5002 29.9861L50.7699 41.2358L55.1296 36.8838ZM31.8793 36.1805L33.963 34.1004C35.6104 32.4559 38.2829 32.4559 39.9303 34.1004L48.9242 43.0782L49.6319 43.7846L48.9242 44.4911L43.8567 49.5495L31.8793 37.5934L31.1715 36.8869L31.8793 36.1805ZM34.6695 34.8082C35.9265 33.5533 37.9668 33.5533 39.2239 34.8082L48.2164 43.7846L43.8567 48.1366L32.587 36.8869L34.6695 34.8082ZM27.0529 40.9982C28.7004 39.3537 31.3729 39.3537 33.0203 40.9982L35.8118 43.7847L36.9467 44.9175L42.0142 49.9759L42.7219 50.6824L42.0142 51.3889L36.9467 56.4473L24.9692 44.4912L24.2614 43.7847L24.9692 43.0783L27.0529 40.9982ZM35.1054 44.4925L36.2402 45.6253L36.2403 45.6253L41.3064 50.6824L36.9467 55.0344L25.6769 43.7847L27.7594 41.706C29.0165 40.4511 31.0568 40.4512 32.3139 41.706L35.1054 44.4925ZM17.3453 50.6824V50.6854L23.1204 56.4503L24.2553 57.5832L30.0336 63.348L35.101 58.2897L35.8087 57.5832L35.8085 57.583L35.101 56.8767L30.0336 51.8183L28.8987 50.6824L23.1235 44.9206L23.1204 44.9175L15.0755 36.8839H15.0724L9.29722 31.119L4.22986 36.1774L3.52213 36.8839L4.22967 37.5906L9.29722 42.6518L10.4321 43.7846L16.2104 49.5495L17.3453 50.6824ZM11.1384 43.0767L11.1386 43.0769L16.9167 48.8416L16.9169 48.8418L18.0518 49.9747L18.3453 50.2677V50.2707L23.8269 55.7426L24.9616 56.8753L24.9618 56.8755L30.0334 61.9353L34.3932 57.5832L29.3271 52.5261L29.3262 52.5251L28.1924 51.3904L28.1913 51.3892L22.4172 45.6286L22.416 45.6273L22.4138 45.6251L22.4129 45.6242L14.6617 37.8839H14.6587L14.3659 37.5917L9.29723 32.532L4.93741 36.8841L10.0037 41.9441L10.0039 41.9443L11.1384 43.0767Z" fill="white"/>
</g>
</svg>
